<?xml version="1.0" standalone="no"?>
<!DOCTYPE svg PUBLIC "-//W3C//DTD SVG 1.1//EN" "http://www.w3.org/Graphics/SVG/1.1/DTD/svg11.dtd">

<svg viewbox="0 0 36 36" style="background:#000" width="100%" height="100%" 
  xmlns="http://www.w3.org/2000/svg"
  xmlns:xlink="http://www.w3.org/1999/xlink">


<line x1="0" y1="0" x2="0" y2="36" stroke="grey" stroke-width="0.05px"/>
<line x1="1" y1="0" x2="1" y2="36" stroke="grey" stroke-width="0.05px"/>
<line x1="2" y1="0" x2="2" y2="36" stroke="grey" stroke-width="0.05px"/>
<line x1="3" y1="0" x2="3" y2="36" stroke="grey" stroke-width="0.05px"/>
<line x1="4" y1="0" x2="4" y2="36" stroke="grey" stroke-width="0.05px"/>
<line x1="5" y1="0" x2="5" y2="36" stroke="grey" stroke-width="0.05px"/>
<line x1="6" y1="0" x2="6" y2="36" stroke="grey" stroke-width="0.05px"/>
<line x1="7" y1="0" x2="7" y2="36" stroke="grey" stroke-width="0.05px"/>
<line x1="8" y1="0" x2="8" y2="36" stroke="grey" stroke-width="0.05px"/>
<line x1="9" y1="0" x2="9" y2="36" stroke="grey" stroke-width="0.05px"/>
<line x1="10" y1="0" x2="10" y2="36" stroke="grey" stroke-width="0.05px"/>
<line x1="11" y1="0" x2="11" y2="36" stroke="grey" stroke-width="0.05px"/>
<line x1="12" y1="0" x2="12" y2="36" stroke="grey" stroke-width="0.05px"/>
<line x1="13" y1="0" x2="13" y2="36" stroke="grey" stroke-width="0.05px"/>
<line x1="14" y1="0" x2="14" y2="36" stroke="grey" stroke-width="0.05px"/>
<line x1="15" y1="0" x2="15" y2="36" stroke="grey" stroke-width="0.05px"/>
<line x1="16" y1="0" x2="16" y2="36" stroke="grey" stroke-width="0.05px"/>
<line x1="17" y1="0" x2="17" y2="36" stroke="grey" stroke-width="0.05px"/>
<line x1="18" y1="0" x2="18" y2="36" stroke="grey" stroke-width="0.05px"/>
<line x1="19" y1="0" x2="19" y2="36" stroke="grey" stroke-width="0.05px"/>
<line x1="20" y1="0" x2="20" y2="36" stroke="grey" stroke-width="0.05px"/>
<line x1="21" y1="0" x2="21" y2="36" stroke="grey" stroke-width="0.05px"/>
<line x1="22" y1="0" x2="22" y2="36" stroke="grey" stroke-width="0.05px"/>
<line x1="23" y1="0" x2="23" y2="36" stroke="grey" stroke-width="0.05px"/>
<line x1="24" y1="0" x2="24" y2="36" stroke="grey" stroke-width="0.05px"/>
<line x1="25" y1="0" x2="25" y2="36" stroke="grey" stroke-width="0.05px"/>
<line x1="26" y1="0" x2="26" y2="36" stroke="grey" stroke-width="0.05px"/>
<line x1="27" y1="0" x2="27" y2="36" stroke="grey" stroke-width="0.05px"/>
<line x1="28" y1="0" x2="28" y2="36" stroke="grey" stroke-width="0.05px"/>
<line x1="29" y1="0" x2="29" y2="36" stroke="grey" stroke-width="0.05px"/>
<line x1="30" y1="0" x2="30" y2="36" stroke="grey" stroke-width="0.05px"/>
<line x1="31" y1="0" x2="31" y2="36" stroke="grey" stroke-width="0.05px"/>
<line x1="32" y1="0" x2="32" y2="36" stroke="grey" stroke-width="0.05px"/>
<line x1="33" y1="0" x2="33" y2="36" stroke="grey" stroke-width="0.05px"/>
<line x1="34" y1="0" x2="34" y2="36" stroke="grey" stroke-width="0.05px"/>
<line x1="35" y1="0" x2="35" y2="36" stroke="grey" stroke-width="0.05px"/>
<line x1="36" y1="0" x2="36" y2="36" stroke="grey" stroke-width="0.05px"/>
<line x1="0" y1="0" x2="36" y2="0" stroke="grey" stroke-width="0.05px"/>
<line x1="0" y1="1" x2="36" y2="1" stroke="grey" stroke-width="0.05px"/>
<line x1="0" y1="2" x2="36" y2="2" stroke="grey" stroke-width="0.05px"/>
<line x1="0" y1="3" x2="36" y2="3" stroke="grey" stroke-width="0.05px"/>
<line x1="0" y1="4" x2="36" y2="4" stroke="grey" stroke-width="0.05px"/>
<line x1="0" y1="5" x2="36" y2="5" stroke="grey" stroke-width="0.05px"/>
<line x1="0" y1="6" x2="36" y2="6" stroke="grey" stroke-width="0.05px"/>
<line x1="0" y1="7" x2="36" y2="7" stroke="grey" stroke-width="0.05px"/>
<line x1="0" y1="8" x2="36" y2="8" stroke="grey" stroke-width="0.05px"/>
<line x1="0" y1="9" x2="36" y2="9" stroke="grey" stroke-width="0.05px"/>
<line x1="0" y1="10" x2="36" y2="10" stroke="grey" stroke-width="0.05px"/>
<line x1="0" y1="11" x2="36" y2="11" stroke="grey" stroke-width="0.05px"/>
<line x1="0" y1="12" x2="36" y2="12" stroke="grey" stroke-width="0.05px"/>
<line x1="0" y1="13" x2="36" y2="13" stroke="grey" stroke-width="0.05px"/>
<line x1="0" y1="14" x2="36" y2="14" stroke="grey" stroke-width="0.05px"/>
<line x1="0" y1="15" x2="36" y2="15" stroke="grey" stroke-width="0.05px"/>
<line x1="0" y1="16" x2="36" y2="16" stroke="grey" stroke-width="0.05px"/>
<line x1="0" y1="17" x2="36" y2="17" stroke="grey" stroke-width="0.05px"/>
<line x1="0" y1="18" x2="36" y2="18" stroke="grey" stroke-width="0.05px"/>
<line x1="0" y1="19" x2="36" y2="19" stroke="grey" stroke-width="0.05px"/>
<line x1="0" y1="20" x2="36" y2="20" stroke="grey" stroke-width="0.05px"/>
<line x1="0" y1="21" x2="36" y2="21" stroke="grey" stroke-width="0.05px"/>
<line x1="0" y1="22" x2="36" y2="22" stroke="grey" stroke-width="0.05px"/>
<line x1="0" y1="23" x2="36" y2="23" stroke="grey" stroke-width="0.05px"/>
<line x1="0" y1="24" x2="36" y2="24" stroke="grey" stroke-width="0.05px"/>
<line x1="0" y1="25" x2="36" y2="25" stroke="grey" stroke-width="0.05px"/>
<line x1="0" y1="26" x2="36" y2="26" stroke="grey" stroke-width="0.05px"/>
<line x1="0" y1="27" x2="36" y2="27" stroke="grey" stroke-width="0.05px"/>
<line x1="0" y1="28" x2="36" y2="28" stroke="grey" stroke-width="0.05px"/>
<line x1="0" y1="29" x2="36" y2="29" stroke="grey" stroke-width="0.05px"/>
<line x1="0" y1="30" x2="36" y2="30" stroke="grey" stroke-width="0.05px"/>
<line x1="0" y1="31" x2="36" y2="31" stroke="grey" stroke-width="0.05px"/>
<line x1="0" y1="32" x2="36" y2="32" stroke="grey" stroke-width="0.05px"/>
<line x1="0" y1="33" x2="36" y2="33" stroke="grey" stroke-width="0.05px"/>
<line x1="0" y1="34" x2="36" y2="34" stroke="grey" stroke-width="0.05px"/>
<line x1="0" y1="35" x2="36" y2="35" stroke="grey" stroke-width="0.05px"/>
<line x1="0" y1="36" x2="36" y2="36" stroke="grey" stroke-width="0.05px"/>
<line x1="0" y1="10" x2="36" y2="10" stroke="grey" stroke-width="0.2px"/>
<line x1="8" y1="0" x2="8" y2="36" stroke="grey" stroke-width="0.2px"/>
<text x="8" y="11" font-size="2px" fill="grey">
0
</text>
<line x1="0" y1="0" x2="36" y2="0" stroke="grey" stroke-width="0.1px"/>
<line x1="-2" y1="0" x2="-2" y2="36" stroke="grey" stroke-width="0.1px"/>
<line x1="0" y1="10" x2="36" y2="10" stroke="grey" stroke-width="0.1px"/>
<line x1="8" y1="0" x2="8" y2="36" stroke="grey" stroke-width="0.1px"/>
<line x1="0" y1="20" x2="36" y2="20" stroke="grey" stroke-width="0.1px"/>
<line x1="18" y1="0" x2="18" y2="36" stroke="grey" stroke-width="0.1px"/>
<line x1="0" y1="30" x2="36" y2="30" stroke="grey" stroke-width="0.1px"/>
<line x1="28" y1="0" x2="28" y2="36" stroke="grey" stroke-width="0.1px"/>
<line x1="0" y1="20" x2="36" y2="20" stroke="white" stroke-width="0.2px"/>
<g>
<polygon points="13,28 10,31 7,28 10,25" fill="#ca95cb" fill-opacity="0.5"/>
<line x1="10" y1="28" x2="10" y2="25" stroke="#ca95cb" stroke-width="0.2px"/>
<text x="9.5" y="28.5" font-size="2px" fill="#ca95cb">
S
</text>
</g>
<g>
<polygon points="18,26 17,27 16,26 17,25" fill="#94b481" fill-opacity="0.5"/>
<line x1="17" y1="26" x2="18" y2="26" stroke="#94b481" stroke-width="0.2px"/>
<text x="16.5" y="26.5" font-size="2px" fill="#94b481">
S
</text>
</g>
<g>
<polygon points="24,12 21,15 18,12 21,9" fill="#8a90ac" fill-opacity="0.5"/>
<line x1="21" y1="12" x2="23" y2="13" stroke="#8a90ac" stroke-width="0.2px"/>
<text x="20.5" y="12.5" font-size="2px" fill="#8a90ac">
S
</text>
</g>
<g>
<polygon points="24,24 20,28 16,24 20,20" fill="#f998d7" fill-opacity="0.5"/>
<line x1="20" y1="24" x2="18" y2="26" stroke="#f998d7" stroke-width="0.2px"/>
<text x="19.5" y="24.5" font-size="2px" fill="#f998d7">
S
</text>
</g>
<g>
<polygon points="22,30 18,34 14,30 18,26" fill="#fdb3d8" fill-opacity="0.5"/>
<line x1="18" y1="30" x2="18" y2="26" stroke="#fdb3d8" stroke-width="0.2px"/>
<text x="17.5" y="30.5" font-size="2px" fill="#fdb3d8">
S
</text>
</g>
<g>
<polygon points="27,27 22,32 17,27 22,22" fill="#d5a19d" fill-opacity="0.5"/>
<line x1="22" y1="27" x2="18" y2="26" stroke="#d5a19d" stroke-width="0.2px"/>
<text x="21.5" y="27.5" font-size="2px" fill="#d5a19d">
S
</text>
</g>
<g>
<polygon points="25,17 16,26 7,17 16,8" fill="#87ddb0" fill-opacity="0.5"/>
<line x1="16" y1="17" x2="10" y2="20" stroke="#87ddb0" stroke-width="0.2px"/>
<text x="15.5" y="17.5" font-size="2px" fill="#87ddb0">
S
</text>
</g>
<g>
<polygon points="20,10 10,20 0,10 10,0" fill="#c8fe97" fill-opacity="0.5"/>
<line x1="10" y1="10" x2="10" y2="20" stroke="#c8fe97" stroke-width="0.2px"/>
<text x="9.5" y="10.5" font-size="2px" fill="#c8fe97">
S
</text>
</g>
<g>
<polygon points="11,21 8,24 5,21 8,18" fill="#84bd81" fill-opacity="0.5"/>
<line x1="8" y1="21" x2="10" y2="20" stroke="#84bd81" stroke-width="0.2px"/>
<text x="7.5" y="21.5" font-size="2px" fill="#84bd81">
S
</text>
</g>
<g>
<polygon points="36,24 28,32 20,24 28,16" fill="#afcbeb" fill-opacity="0.5"/>
<line x1="28" y1="24" x2="33" y2="27" stroke="#afcbeb" stroke-width="0.2px"/>
<text x="27.5" y="24.5" font-size="2px" fill="#afcbeb">
S
</text>
</g>
<g>
<polygon points="31,30 25,36 19,30 25,24" fill="#d6abde" fill-opacity="0.5"/>
<line x1="25" y1="30" x2="29" y2="32" stroke="#d6abde" stroke-width="0.2px"/>
<text x="24.5" y="30.5" font-size="2px" fill="#d6abde">
S
</text>
</g>
<g>
<polygon points="29,17 24,22 19,17 24,12" fill="#d8dbd7" fill-opacity="0.5"/>
<line x1="24" y1="17" x2="23" y2="13" stroke="#d8dbd7" stroke-width="0.2px"/>
<text x="23.5" y="17.5" font-size="2px" fill="#d8dbd7">
S
</text>
</g>
<g>
<polygon points="23,13 22,14 21,13 22,12" fill="#f0d0ac" fill-opacity="0.5"/>
<line x1="22" y1="13" x2="23" y2="13" stroke="#f0d0ac" stroke-width="0.2px"/>
<text x="21.5" y="13.5" font-size="2px" fill="#f0d0ac">
S
</text>
</g>
<g>
<polygon points="35,11 28,18 21,11 28,4" fill="#bcb6e3" fill-opacity="0.5"/>
<line x1="28" y1="11" x2="23" y2="13" stroke="#bcb6e3" stroke-width="0.2px"/>
<text x="27.5" y="11.5" font-size="2px" fill="#bcb6e3">
S
</text>
</g>

</svg>